<?xml version="1.0" standalone="no"?>
<!DOCTYPE svg PUBLIC "-//W3C//DTD SVG 20010904//EN"
 "http://www.w3.org/TR/2001/REC-SVG-20010904/DTD/svg10.dtd">
<svg version="1.0" xmlns="http://www.w3.org/2000/svg"
 width="1369.000000pt" height="1369.000000pt" viewBox="0 0 1369.000000 1369.000000"
 preserveAspectRatio="xMidYMid meet">
<metadata>
Created by potrace 1.11, written by Peter Selinger 2001-2013
</metadata>
<g transform="translate(0.000000,1369.000000) scale(0.100000,-0.100000)"
fill="#000000" stroke="none">
<path d="M6505 13049 c-1093 -58 -2151 -406 -3065 -1007 -373 -245 -628 -451
-953 -772 -517 -508 -907 -1048 -1222 -1693 -137 -280 -220 -481 -315 -767
-601 -1807 -341 -3796 704 -5380 917 -1389 2342 -2350 3966 -2674 652 -131
1358 -155 2025 -70 1850 234 3503 1306 4498 2916 426 689 731 1530 846 2333
86 599 86 1245 0 1825 -242 1628 -1111 3079 -2434 4068 -1162 869 -2590 1299
-4050 1221z m1765 -3502 c511 -60 864 -173 1152 -368 123 -83 306 -267 384
-384 156 -235 253 -535 285 -879 15 -161 7 -550 -16 -736 -173 -1449 -752
-2396 -1716 -2808 -222 -95 -464 -163 -704 -197 -266 -37 -294 -38 -1786 -42
l-1475 -4 100 563 101 563 1230 6 c677 3 1241 9 1255 12 14 3 68 11 120 17
447 54 820 226 1035 477 206 240 329 548 439 1103 67 335 83 579 51 778 -64
394 -315 631 -770 728 -224 48 -204 48 -1542 51 -695 2 -1263 7 -1263 11 0 7
186 1056 196 1105 l6 28 1386 -4 c1225 -3 1404 -5 1532 -20z m-1477 -2134 c6
-9 -65 -328 -117 -528 -62 -240 -152 -387 -293 -481 -75 -50 -225 -100 -338
-113 -59 -7 -526 -11 -1368 -11 -1213 0 -1278 1 -1273 18 3 9 19 80 36 157 94
425 140 570 220 682 109 157 273 245 501 272 91 10 2626 14 2632 4z"/>
</g>
</svg>
