<?xml version="1.0" standalone="no"?>
<!DOCTYPE svg PUBLIC "-//W3C//DTD SVG 20010904//EN"
 "http://www.w3.org/TR/2001/REC-SVG-20010904/DTD/svg10.dtd">
<svg version="1.0" xmlns="http://www.w3.org/2000/svg"
 width="336.000000pt" height="336.000000pt" viewBox="0 0 336.000000 336.000000"
 preserveAspectRatio="xMidYMid meet">
<metadata>
Created by potrace 1.11, written by Peter Selinger 2001-2013
</metadata>
<g transform="translate(0.000000,336.000000) scale(0.100000,-0.100000)"
fill="#000000" stroke="none">
<path d="M1518 3355 c-2 -2 -25 -6 -53 -9 -27 -4 -63 -9 -80 -13 -16 -3 -37
-7 -45 -8 -8 -1 -22 -5 -30 -7 -8 -3 -44 -13 -80 -23 -143 -37 -377 -146 -485
-227 -79 -59 -172 -137 -220 -184 -106 -104 -242 -283 -295 -389 -8 -16 -18
-32 -21 -35 -9 -8 -97 -222 -105 -255 -4 -16 -9 -34 -13 -40 -3 -5 -6 -15 -7
-22 -1 -6 -11 -51 -23 -100 -11 -48 -24 -117 -28 -153 -10 -85 -10 -349 0
-425 14 -103 63 -307 87 -360 5 -11 21 -49 36 -85 94 -233 274 -475 479 -645
191 -159 487 -301 715 -341 14 -3 32 -7 40 -9 97 -27 483 -27 580 0 8 2 28 6
43 9 48 8 202 55 251 75 25 11 46 18 46 16 0 -9 215 108 288 156 176 118 356
300 468 475 40 62 135 238 138 258 1 6 10 28 19 49 19 45 67 194 66 205 -1 4
0 9 1 12 2 7 5 21 26 125 12 64 18 140 18 260 1 191 -4 241 -35 376 -6 26 -12
55 -14 65 -2 11 -4 19 -5 19 -1 0 -3 11 -6 24 -2 14 -9 30 -15 38 -6 7 -9 13
-6 13 4 0 -5 30 -19 68 -150 401 -452 739 -819 916 -135 65 -151 72 -265 105
-117 35 -129 38 -255 56 -77 11 -368 19 -377 10z"/>
</g>
</svg>
